<svg width="89" height="91" viewBox="0 0 89 91" fill="none" xmlns="http://www.w3.org/2000/svg">
<path d="M45.0957 34.4871C46.8668 37.4978 49.9105 40.2 54.3 40.2C56.8423 40.2 59.029 39.3382 60.865 38.0274C59.3523 41.3127 58.5 44.9683 58.5 48.25C58.5 48.9001 58.5316 49.5629 58.5986 50.2291C57.2374 49.0702 55.8256 48.0227 54.3862 47.122C51.1318 45.0856 47.4925 43.65 43.85 43.65C40.2075 43.65 36.5682 45.0856 33.3138 47.122C32.0825 47.8925 30.8714 48.7704 29.6948 49.7336C29.7321 49.2345 29.75 48.7387 29.75 48.25C29.75 45.1365 28.9157 41.7328 27.5194 38.6372C29.2224 39.6056 31.1829 40.2 33.4 40.2C37.7894 40.2 40.8332 37.4978 42.6043 34.4871C43.0925 33.6571 43.5066 32.773 43.85 31.8589C44.1933 32.773 44.6075 33.6571 45.0957 34.4871ZM66.9283 30.178C68.4948 26.7231 69.35 22.8773 69.35 19.65C69.35 16.3961 68.5514 12.7331 66.8043 9.76293C65.0332 6.75217 61.9894 4.05 57.6 4.05C52.1596 4.05 48.3476 7.99667 46.1161 11.844C45.2191 13.3905 44.4777 15.0777 43.9076 16.7951C43.328 14.9119 42.5532 13.0671 41.5988 11.3887C39.3646 7.4597 35.5515 3.5 30.1 3.5C25.7105 3.5 22.6668 6.20217 20.8957 9.21293C19.1725 12.1425 18.372 15.7459 18.3504 18.9662C18.1186 22.2994 18.7592 26.0967 20.147 29.528C18.3876 28.4131 16.378 27.7 14.15 27.7C10.2869 27.7 7.46096 29.7225 5.75693 32.4289C4.13755 35.0009 3.5 38.1795 3.5 41.1C3.5 45.4508 5.12919 50.3684 7.64455 54.22C10.0765 57.9439 14.0206 61.65 19.1 61.65C19.2186 61.65 19.3363 61.6481 19.4529 61.6443C16.4947 66.5356 14.5 71.9168 14.5 76.85C14.5 80.5167 15.8457 83.4485 18.4164 85.3181C20.7858 87.0412 23.7117 87.5 26.25 87.5C30.2777 87.5 33.7303 86.1526 36.4903 85.0755L36.5286 85.0605C39.4812 83.9083 41.6018 83.1 43.85 83.1C45.7773 83.1 47.7171 83.8696 50.5653 85.0381L50.628 85.0638C53.225 86.1294 56.5656 87.5 60.35 87.5C62.7134 87.5 65.8171 87.2294 68.424 85.7254C71.3612 84.0309 73.2 81.0474 73.2 76.85C73.2 71.9054 71.1961 66.5107 68.2266 61.6105C68.5275 61.6366 68.8353 61.65 69.15 61.65C74.4617 61.65 78.4185 58.0034 80.839 54.1775C83.3051 50.2795 84.75 45.3729 84.75 41.1C84.75 38.0328 83.9093 34.8605 82.2372 32.3523C80.5427 29.8105 77.7787 27.7 74.1 27.7C71.3333 27.7 68.9342 28.6893 66.9283 30.178Z" stroke="#69B7FF" stroke-width="7" stroke-linecap="round" stroke-linejoin="round"/>
</svg>
