<svg width="39" height="43" viewBox="0 0 39 43" fill="none" xmlns="http://www.w3.org/2000/svg">
<path d="M37.8891 40.8164H31.5431C32.888 40.0613 34.0386 39.1517 35.0258 38.0905L35.0347 38.0803C37.4948 35.2743 38.9926 31.5864 38.9926 27.5501C38.9926 27.4743 38.9926 27.397 38.9912 27.3212V27.3329C38.9971 27.1857 39 27.0122 39 26.8387C39 18.6743 32.473 12.0185 24.3055 11.7153L24.2775 11.7139V8.38164C24.2702 6.56392 23.0416 5.0319 21.3627 4.55087L21.3348 4.54358V1.09326C21.3348 0.489779 20.8404 0 20.2313 0H14.3458C13.7367 0 13.2423 0.489779 13.2423 1.09326V4.54358C11.534 5.0319 10.3054 6.56392 10.2996 8.38018V25.8738C10.3025 28.0865 12.1123 29.8795 14.3458 29.8824H20.2313C22.4648 29.8795 24.2746 28.0865 24.2775 25.8738V13.9529C31.2444 14.2109 36.7944 19.8681 36.7944 26.811C36.7944 26.9933 36.79 27.1755 36.7827 27.3562L36.7841 27.33C36.7856 27.3941 36.7856 27.4714 36.7856 27.5472C36.7856 31.0252 35.4982 34.2044 33.3691 36.6431L33.3838 36.6256C30.9663 39.2115 27.5204 40.8237 23.6949 40.8237C23.5109 40.8237 23.3285 40.8193 23.1475 40.812L23.174 40.8135H1.10352C0.494379 40.8135 0 41.3033 0 41.9067C0 42.5102 0.494379 43 1.10352 43H37.8876C38.4968 43 38.9912 42.5102 38.9912 41.9067C38.9912 41.3033 38.4968 40.8135 37.8876 40.8135L37.8891 40.8164ZM15.4508 2.18797H19.1292V4.37449H15.4508V2.18797ZM22.0719 25.8752C22.0705 26.881 21.248 27.6959 20.2327 27.6973H14.3473C13.332 27.6959 12.5095 26.881 12.5081 25.8752V8.3831C12.5095 7.3773 13.332 6.56246 14.3473 6.561H20.2327C21.248 6.56246 22.0705 7.3773 22.0719 8.3831V25.8752ZM8.46182 36.4346H26.1182C26.7273 36.4346 27.2217 35.9448 27.2217 35.3414C27.2217 34.7379 26.7273 34.2481 26.1182 34.2481H8.46182C7.85268 34.2481 7.3583 34.7379 7.3583 35.3414C7.3583 35.9448 7.85268 36.4346 8.46182 36.4346Z" fill="#75BDFF"/>
</svg>
