<svg width="42" height="43" viewBox="0 0 42 43" fill="none" xmlns="http://www.w3.org/2000/svg">
<path d="M20.791 0C9.32687 0 0 9.44306 0 21.05C0 32.6569 9.32687 42.1 20.791 42.1C32.2551 42.1 41.582 32.6569 41.582 21.05C41.5812 9.44306 32.2551 0 20.791 0ZM20.791 38.7072C11.1745 38.7072 3.35107 30.7863 3.35107 21.0492C3.35107 11.3129 11.1745 3.39206 20.791 3.39206C30.4075 3.39206 38.2309 11.3137 38.2309 21.05C38.2309 30.7863 30.4075 38.7072 20.791 38.7072Z" fill="#75BDFF"/>
<path d="M27.4185 14.3377L17.7139 24.1639L14.1627 20.5685C13.5088 19.9057 12.448 19.9057 11.7941 20.5685C11.1394 21.2306 11.1394 22.3046 11.7941 22.9667L16.5299 27.7616C16.8569 28.0926 17.2861 28.2589 17.7146 28.2589C18.1431 28.2589 18.5716 28.0934 18.8986 27.7616L29.7879 16.7366C30.4418 16.0738 30.4418 15.0005 29.7879 14.3377C29.1332 13.6756 28.0731 13.6756 27.4185 14.3377Z" fill="#75BDFF"/>
</svg>
