<svg width="41" height="39" viewBox="0 0 41 39" fill="none" xmlns="http://www.w3.org/2000/svg">
<path d="M5.83747 8.86528C5.06337 8.86528 4.32098 9.17662 3.77361 9.73081C3.22624 10.285 2.91873 11.0366 2.91873 11.8204V32.506C2.91873 33.2898 3.22624 34.0414 3.77361 34.5956C4.32098 35.1498 5.06337 35.4611 5.83747 35.4611H35.0248C35.7989 35.4611 36.5413 35.1498 37.0887 34.5956C37.636 34.0414 37.9436 33.2898 37.9436 32.506V11.8204C37.9436 11.0366 37.636 10.285 37.0887 9.73081C36.5413 9.17662 35.7989 8.86528 35.0248 8.86528H5.83747ZM5.83747 5.91019H35.0248C36.573 5.91019 38.0578 6.53287 39.1525 7.64124C40.2473 8.74962 40.8623 10.2529 40.8623 11.8204V32.506C40.8623 34.0735 40.2473 35.5768 39.1525 36.6852C38.0578 37.7936 36.573 38.4162 35.0248 38.4162H5.83747C4.28928 38.4162 2.80449 37.7936 1.70976 36.6852C0.615017 35.5768 0 34.0735 0 32.506V11.8204C0 10.2529 0.615017 8.74962 1.70976 7.64124C2.80449 6.53287 4.28928 5.91019 5.83747 5.91019Z" fill="#75BDFF"/>
<path d="M21.8905 20.6857H26.2686C26.6557 20.6857 27.0269 20.8413 27.3005 21.1184C27.5742 21.3955 27.728 21.7713 27.728 22.1632C27.728 22.5551 27.5742 22.9309 27.3005 23.208C27.0269 23.4851 26.6557 23.6408 26.2686 23.6408H21.8905V28.0734C21.8905 28.4653 21.7368 28.8411 21.4631 29.1182C21.1894 29.3953 20.8182 29.5509 20.4311 29.5509C20.0441 29.5509 19.6729 29.3953 19.3992 29.1182C19.1255 28.8411 18.9718 28.4653 18.9718 28.0734V23.6408H14.5937C14.2066 23.6408 13.8354 23.4851 13.5617 23.208C13.2881 22.9309 13.1343 22.5551 13.1343 22.1632C13.1343 21.7713 13.2881 21.3955 13.5617 21.1184C13.8354 20.8413 14.2066 20.6857 14.5937 20.6857H18.9718V16.253C18.9718 15.8612 19.1255 15.4853 19.3992 15.2082C19.6729 14.9311 20.0441 14.7755 20.4311 14.7755C20.8182 14.7755 21.1894 14.9311 21.4631 15.2082C21.7368 15.4853 21.8905 15.8612 21.8905 16.253V20.6857ZM13.1343 2.95509V5.91019H27.728V2.95509H13.1343ZM11.6749 0H29.1874C29.5744 0 29.9456 0.15567 30.2193 0.432764C30.493 0.709857 30.6467 1.08568 30.6467 1.47755V7.38774C30.6467 7.77961 30.493 8.15543 30.2193 8.43252C29.9456 8.70961 29.5744 8.86528 29.1874 8.86528H11.6749C11.2879 8.86528 10.9167 8.70961 10.643 8.43252C10.3693 8.15543 10.2156 7.77961 10.2156 7.38774V1.47755C10.2156 1.08568 10.3693 0.709857 10.643 0.432764C10.9167 0.15567 11.2879 0 11.6749 0Z" fill="#75BDFF"/>
</svg>
