<svg width="29" height="23" viewBox="0 0 29 23" fill="none" xmlns="http://www.w3.org/2000/svg">
<path fill-rule="evenodd" clip-rule="evenodd" d="M1.61111 0C0.721327 0 0 0.73554 0 1.64286C0 2.55017 0.721327 3.28571 1.61111 3.28571H27.3889C28.2787 3.28571 29 2.55017 29 1.64286C29 0.73554 28.2787 0 27.3889 0H1.61111ZM6.44444 11.5C6.44444 10.5927 7.16577 9.85714 8.05556 9.85714H27.3889C28.2787 9.85714 29 10.5927 29 11.5C29 12.4074 28.2787 13.1429 27.3889 13.1429H8.05556C7.16577 13.1429 6.44444 12.4074 6.44444 11.5ZM16.1111 21.3571C16.1111 20.4498 16.8324 19.7143 17.7222 19.7143H27.3889C28.2787 19.7143 29 20.4498 29 21.3571C29 22.2645 28.2787 23 27.3889 23H17.7222C16.8324 23 16.1111 22.2645 16.1111 21.3571Z" fill="#0063BE"/>
</svg>
