<svg width="35" height="34" viewBox="0 0 35 34" fill="none" xmlns="http://www.w3.org/2000/svg">
<path fill-rule="evenodd" clip-rule="evenodd" d="M34 17C34 25.8365 26.6126 33 17.5 33C8.38731 33 1 25.8365 1 17C1 8.16344 8.38731 1 17.5 1C26.6126 1 34 8.16344 34 17ZM18.0912 12.8119C16.4864 13.4592 13.2789 14.7989 8.46884 16.831C7.68776 17.1323 7.27859 17.427 7.24134 17.715C7.17839 18.2021 7.80722 18.3938 8.66352 18.6549C8.77999 18.6904 8.90067 18.7272 9.02439 18.7661C9.86686 19.0317 11.0001 19.3424 11.5892 19.3547C12.1236 19.3659 12.7201 19.1523 13.3786 18.7138C17.8727 15.772 20.1928 14.2851 20.3383 14.253C20.4411 14.2304 20.5835 14.2019 20.6801 14.2851C20.7766 14.3683 20.767 14.5258 20.7568 14.568C20.6946 14.8256 18.2262 17.0509 16.9487 18.2024C16.5506 18.5614 16.2681 18.816 16.2104 18.8742C16.081 19.0045 15.9492 19.1277 15.8225 19.2461C15.0399 19.9778 14.4528 20.5264 15.855 21.4224C16.5287 21.853 17.0679 22.209 17.6058 22.5642C18.1932 22.9522 18.7791 23.339 19.5373 23.821C19.7303 23.9437 19.9148 24.0712 20.0945 24.1954C20.7781 24.668 21.3922 25.0926 22.151 25.0248C22.5919 24.9856 23.0473 24.5835 23.2786 23.3845C23.8253 20.5509 24.8998 14.4112 25.1481 11.8813C25.1699 11.6596 25.1425 11.376 25.1204 11.2514C25.0984 11.1269 25.0526 10.9495 24.8856 10.8181C24.6879 10.6626 24.3826 10.6298 24.2462 10.632C23.6256 10.6427 22.6734 10.9638 18.0912 12.8119Z" stroke="black" stroke-linejoin="round"/>
</svg>

