<svg width="32" height="34" viewBox="0 0 32 34" fill="none" xmlns="http://www.w3.org/2000/svg">
<path d="M15.9379 1C7.72204 1 1 7.72204 1 15.9379C1 19.5656 2.38709 22.98 4.52107 25.5408L2.06699 33.0097L9.85602 29.5954C11.6699 30.4489 13.8039 30.8757 15.9379 30.8757C24.1537 30.8757 30.8757 24.1537 30.8757 15.9379C30.8757 7.72204 24.1537 1 15.9379 1Z" stroke="black" stroke-miterlimit="10" stroke-linecap="round" stroke-linejoin="round"/>
<path d="M24.1535 21.3795C24.4736 20.4192 24.4736 19.6723 24.3669 19.4589C24.2602 19.2455 24.0468 19.2455 23.62 19.0321C23.1932 18.8187 21.2726 17.8584 20.9525 17.7517C20.6324 17.645 20.2056 17.645 19.9922 18.0718C19.5655 18.6053 19.2454 19.1388 18.9253 19.4589C18.7119 19.6723 18.2851 19.779 17.965 19.5656C17.5382 19.3522 16.2578 18.9254 14.764 17.645C13.5903 16.578 12.8434 15.2976 12.5233 14.8708C12.3099 14.444 12.5233 14.2306 12.7367 14.0172C12.9501 13.8038 13.1635 13.5904 13.3769 13.377C13.5903 13.1636 13.697 13.0569 13.8037 12.7368C13.9104 12.5234 13.8037 12.2033 13.697 11.9899C13.5903 11.7765 12.8434 9.85596 12.5233 9.10907C12.3099 8.46887 12.0965 8.46887 11.6697 8.46887C11.563 8.46887 11.3496 8.46887 11.2429 8.46887C10.7094 8.46887 10.1759 8.57557 9.85584 9.00237C9.42904 9.42916 8.46875 10.3895 8.46875 12.31C8.46875 14.2306 9.85584 16.1512 10.0692 16.3646C10.2826 16.578 12.8434 20.6326 16.7913 22.3398C19.8856 23.6201 20.8458 23.5134 21.486 23.4067C22.553 23.0866 23.8334 22.3398 24.1535 21.3795Z" stroke="black"/>
</svg>

